<svg id="Group_12" data-name="Group 12" xmlns="http://www.w3.org/2000/svg" width="183.835" height="57.028" viewBox="0 0 183.835 57.028">
  <g id="Group_11" data-name="Group 11">
    <path id="Path_60" data-name="Path 60" d="M178.323,1680.682a1.492,1.492,0,0,1,1.491-1.491h0a1.494,1.494,0,0,1,1.49,1.491h0a1.491,1.491,0,0,1-1.49,1.491h0A1.489,1.489,0,0,1,178.323,1680.682Zm0-3.974a1.492,1.492,0,0,1,1.491-1.491h0a1.494,1.494,0,0,1,1.49,1.491h0a1.492,1.492,0,0,1-1.49,1.491h0A1.489,1.489,0,0,1,178.323,1676.707Zm0-3.975a1.492,1.492,0,0,1,1.491-1.49h0a1.494,1.494,0,0,1,1.49,1.49h0a1.491,1.491,0,0,1-1.49,1.49h0A1.489,1.489,0,0,1,178.323,1672.732Zm0-3.974a1.492,1.492,0,0,1,1.491-1.491h0a1.494,1.494,0,0,1,1.49,1.491h0a1.491,1.491,0,0,1-1.49,1.49h0A1.489,1.489,0,0,1,178.323,1668.758Zm0-3.974a1.492,1.492,0,0,1,1.491-1.491h0a1.494,1.494,0,0,1,1.49,1.491h0a1.491,1.491,0,0,1-1.49,1.49h0A1.489,1.489,0,0,1,178.323,1664.784Zm0-3.974a1.492,1.492,0,0,1,1.491-1.491h0a1.494,1.494,0,0,1,1.49,1.491h0a1.491,1.491,0,0,1-1.49,1.49h0A1.489,1.489,0,0,1,178.323,1660.809Zm0-3.975a1.492,1.492,0,0,1,1.491-1.49h0a1.494,1.494,0,0,1,1.49,1.49h0a1.491,1.491,0,0,1-1.49,1.491h0A1.489,1.489,0,0,1,178.323,1656.834Z" transform="translate(-156.458 -1640.119)"/>
    <path id="Path_61" data-name="Path 61" d="M179.31,1708.8a2.733,2.733,0,0,1-2.733-2.733v-7.335a2.733,2.733,0,1,1,5.465,0v7.335A2.733,2.733,0,0,1,179.31,1708.8Z" transform="translate(-155.955 -1651.832)"/>
    <path id="Path_62" data-name="Path 62" d="M179.31,1647.17a2.733,2.733,0,0,1-2.733-2.732v-7.4a2.733,2.733,0,0,1,5.465,0v7.4A2.733,2.733,0,0,1,179.31,1647.17Z" transform="translate(-155.955 -1634.057)"/>
    <path id="Path_63" data-name="Path 63" d="M163.955,1687.906a2.732,2.732,0,0,1-2.732-2.732v-40.63a2.732,2.732,0,1,1,5.464,0v40.63A2.732,2.732,0,0,1,163.955,1687.906Z" transform="translate(-151.531 -1636.219)"/>
    <path id="Path_64" data-name="Path 64" d="M147.609,1681.863a1.5,1.5,0,0,1,1.491-1.491h0a1.492,1.492,0,0,1,1.491,1.491h0a1.489,1.489,0,0,1-1.491,1.491h0A1.493,1.493,0,0,1,147.609,1681.863Zm0-3.974a1.5,1.5,0,0,1,1.491-1.491h0a1.492,1.492,0,0,1,1.491,1.491h0a1.489,1.489,0,0,1-1.491,1.49h0A1.492,1.492,0,0,1,147.609,1677.889Zm0-3.97a1.492,1.492,0,0,1,1.491-1.491h0a1.488,1.488,0,0,1,1.491,1.491h0a1.491,1.491,0,0,1-1.491,1.49h0A1.5,1.5,0,0,1,147.609,1673.919Zm0-3.979a1.5,1.5,0,0,1,1.491-1.49h0a1.491,1.491,0,0,1,1.491,1.49h0a1.489,1.489,0,0,1-1.491,1.491h0A1.492,1.492,0,0,1,147.609,1669.94Zm0-3.974a1.5,1.5,0,0,1,1.491-1.491h0a1.492,1.492,0,0,1,1.491,1.491h0a1.488,1.488,0,0,1-1.491,1.49h0A1.492,1.492,0,0,1,147.609,1665.965Zm0-3.969a1.492,1.492,0,0,1,1.491-1.491h0A1.488,1.488,0,0,1,150.59,1662h0a1.491,1.491,0,0,1-1.491,1.49h0A1.5,1.5,0,0,1,147.609,1662Zm0-3.979a1.491,1.491,0,0,1,1.491-1.486h0a1.487,1.487,0,0,1,1.491,1.486h0a1.488,1.488,0,0,1-1.491,1.49h0A1.492,1.492,0,0,1,147.609,1658.016Zm0-3.97a1.492,1.492,0,0,1,1.491-1.49h0a1.488,1.488,0,0,1,1.491,1.49h0a1.492,1.492,0,0,1-1.491,1.491h0A1.5,1.5,0,0,1,147.609,1654.046Z" transform="translate(-147.609 -1639.315)"/>
    <path id="Path_65" data-name="Path 65" d="M193.677,1678.316a1.491,1.491,0,0,1,1.49-1.491h0a1.492,1.492,0,0,1,1.491,1.491h0a1.489,1.489,0,0,1-1.491,1.491h0A1.489,1.489,0,0,1,193.677,1678.316Zm0-3.975a1.491,1.491,0,0,1,1.49-1.49h0a1.491,1.491,0,0,1,1.491,1.49h0a1.488,1.488,0,0,1-1.491,1.49h0A1.488,1.488,0,0,1,193.677,1674.341Zm0-3.974a1.492,1.492,0,0,1,1.49-1.491h0a1.492,1.492,0,0,1,1.491,1.491h0a1.488,1.488,0,0,1-1.491,1.49h0A1.488,1.488,0,0,1,193.677,1670.367Zm0-3.974a1.491,1.491,0,0,1,1.49-1.491h0a1.492,1.492,0,0,1,1.491,1.491h0a1.488,1.488,0,0,1-1.491,1.49h0A1.488,1.488,0,0,1,193.677,1666.392Zm0-3.974a1.491,1.491,0,0,1,1.49-1.491h0a1.492,1.492,0,0,1,1.491,1.491h0a1.488,1.488,0,0,1-1.491,1.49h0A1.488,1.488,0,0,1,193.677,1662.418Z" transform="translate(-160.882 -1641.727)"/>
    <path id="Path_66" data-name="Path 66" d="M194.664,1701.58a2.732,2.732,0,0,1-2.732-2.732V1692a2.732,2.732,0,1,1,5.464,0v6.845A2.732,2.732,0,0,1,194.664,1701.58Z" transform="translate(-160.379 -1649.894)"/>
    <path id="Path_67" data-name="Path 67" d="M194.664,1654.12a2.732,2.732,0,0,1-2.732-2.732v-6.844a2.732,2.732,0,1,1,5.464,0v6.844A2.732,2.732,0,0,1,194.664,1654.12Z" transform="translate(-160.379 -1636.219)"/>
    <path id="Path_68" data-name="Path 68" d="M210.019,1683.221a2.732,2.732,0,0,1-2.733-2.732v-25.228a2.733,2.733,0,1,1,5.465,0v25.228A2.732,2.732,0,0,1,210.019,1683.221Z" transform="translate(-164.803 -1639.307)"/>
    <path id="Path_69" data-name="Path 69" d="M245.815,1683.221a2.732,2.732,0,0,1-2.733-2.732v-25.228a2.733,2.733,0,1,1,5.465,0v25.228A2.732,2.732,0,0,1,245.815,1683.221Z" transform="translate(-175.117 -1639.307)"/>
    <path id="Path_70" data-name="Path 70" d="M307.142,1683.221a2.732,2.732,0,0,1-2.733-2.732v-25.228a2.733,2.733,0,1,1,5.465,0v25.228A2.732,2.732,0,0,1,307.142,1683.221Z" transform="translate(-192.786 -1639.307)"/>
    <path id="Path_71" data-name="Path 71" d="M275.336,1711.369a1.491,1.491,0,0,1,1.491-1.491h0a1.494,1.494,0,0,1,1.49,1.491h0a1.492,1.492,0,0,1-1.49,1.491h0A1.489,1.489,0,0,1,275.336,1711.369Z" transform="translate(-184.41 -1655.831)"/>
    <path id="Path_72" data-name="Path 72" d="M275.336,1705.786a1.491,1.491,0,0,1,1.491-1.49h0a1.494,1.494,0,0,1,1.49,1.49h0a1.492,1.492,0,0,1-1.49,1.491h0A1.489,1.489,0,0,1,275.336,1705.786Z" transform="translate(-184.41 -1654.222)"/>
    <path id="Path_73" data-name="Path 73" d="M275.336,1658.131a1.491,1.491,0,0,1,1.491-1.49h0a1.494,1.494,0,0,1,1.49,1.49h0a1.491,1.491,0,0,1-1.49,1.49h0A1.488,1.488,0,0,1,275.336,1658.131Z" transform="translate(-184.41 -1640.492)"/>
    <path id="Path_74" data-name="Path 74" d="M275.336,1652.547a1.491,1.491,0,0,1,1.491-1.49h0a1.494,1.494,0,0,1,1.49,1.49h0a1.492,1.492,0,0,1-1.49,1.491h0A1.489,1.489,0,0,1,275.336,1652.547Z" transform="translate(-184.41 -1638.884)"/>
    <path id="Path_75" data-name="Path 75" d="M275.336,1646.964a1.492,1.492,0,0,1,1.491-1.49h0a1.5,1.5,0,0,1,1.49,1.49h0a1.491,1.491,0,0,1-1.49,1.491h0A1.488,1.488,0,0,1,275.336,1646.964Z" transform="translate(-184.41 -1637.275)"/>
    <path id="Path_76" data-name="Path 76" d="M275.336,1641.381a1.491,1.491,0,0,1,1.491-1.49h0a1.494,1.494,0,0,1,1.49,1.49h0a1.492,1.492,0,0,1-1.49,1.491h0A1.489,1.489,0,0,1,275.336,1641.381Z" transform="translate(-184.41 -1635.666)"/>
    <path id="Path_77" data-name="Path 77" d="M275.336,1635.8a1.491,1.491,0,0,1,1.491-1.49h0a1.494,1.494,0,0,1,1.49,1.49h0a1.492,1.492,0,0,1-1.49,1.491h0A1.489,1.489,0,0,1,275.336,1635.8Z" transform="translate(-184.41 -1634.057)"/>
    <path id="Path_78" data-name="Path 78" d="M276.322,1691.056a2.733,2.733,0,0,1-2.733-2.732v-23.368a2.733,2.733,0,0,1,5.465,0v23.368A2.733,2.733,0,0,1,276.322,1691.056Z" transform="translate(-183.907 -1642.101)"/>
    <path id="Path_79" data-name="Path 79" d="M370.946,1657.779a1.5,1.5,0,0,1,1.491-1.49h0a1.5,1.5,0,0,1,1.5,1.49h0a1.493,1.493,0,0,1-1.5,1.491h0A1.492,1.492,0,0,1,370.946,1657.779Z" transform="translate(-211.957 -1640.391)"/>
    <path id="Path_80" data-name="Path 80" d="M370.946,1652.2a1.5,1.5,0,0,1,1.491-1.491h0a1.5,1.5,0,0,1,1.5,1.491h0a1.493,1.493,0,0,1-1.5,1.491h0A1.493,1.493,0,0,1,370.946,1652.2Z" transform="translate(-211.957 -1638.782)"/>
    <path id="Path_81" data-name="Path 81" d="M370.946,1646.613a1.5,1.5,0,0,1,1.491-1.491h0a1.5,1.5,0,0,1,1.5,1.491h0a1.493,1.493,0,0,1-1.5,1.49h0A1.492,1.492,0,0,1,370.946,1646.613Z" transform="translate(-211.957 -1637.173)"/>
    <path id="Path_82" data-name="Path 82" d="M370.946,1641.03a1.5,1.5,0,0,1,1.491-1.491h0a1.5,1.5,0,0,1,1.5,1.491h0a1.493,1.493,0,0,1-1.5,1.49h0A1.492,1.492,0,0,1,370.946,1641.03Z" transform="translate(-211.957 -1635.565)"/>
    <path id="Path_83" data-name="Path 83" d="M370.946,1635.447a1.5,1.5,0,0,1,1.491-1.491h0a1.5,1.5,0,0,1,1.5,1.491h0a1.493,1.493,0,0,1-1.5,1.491h0A1.493,1.493,0,0,1,370.946,1635.447Z" transform="translate(-211.957 -1633.956)"/>
    <path id="Path_84" data-name="Path 84" d="M370.946,1711.369a1.5,1.5,0,0,1,1.491-1.491h0a1.5,1.5,0,0,1,1.5,1.491h0a1.493,1.493,0,0,1-1.5,1.491h0A1.492,1.492,0,0,1,370.946,1711.369Z" transform="translate(-211.957 -1655.831)"/>
    <path id="Path_85" data-name="Path 85" d="M370.946,1705.786a1.5,1.5,0,0,1,1.491-1.49h0a1.5,1.5,0,0,1,1.5,1.49h0a1.493,1.493,0,0,1-1.5,1.491h0A1.492,1.492,0,0,1,370.946,1705.786Z" transform="translate(-211.957 -1654.222)"/>
    <path id="Path_86" data-name="Path 86" d="M370.946,1700.2a1.5,1.5,0,0,1,1.491-1.491h0a1.5,1.5,0,0,1,1.5,1.491h0a1.493,1.493,0,0,1-1.5,1.491h0A1.492,1.492,0,0,1,370.946,1700.2Z" transform="translate(-211.957 -1652.614)"/>
    <path id="Path_87" data-name="Path 87" d="M370.946,1694.62a1.5,1.5,0,0,1,1.491-1.491h0a1.5,1.5,0,0,1,1.5,1.491h0a1.493,1.493,0,0,1-1.5,1.49h0A1.492,1.492,0,0,1,370.946,1694.62Z" transform="translate(-211.957 -1651.005)"/>
    <path id="Path_88" data-name="Path 88" d="M370.946,1689.037a1.5,1.5,0,0,1,1.491-1.491h0a1.5,1.5,0,0,1,1.5,1.491h0a1.492,1.492,0,0,1-1.5,1.49h0A1.492,1.492,0,0,1,370.946,1689.037Z" transform="translate(-211.957 -1649.397)"/>
    <path id="Path_89" data-name="Path 89" d="M371.938,1679.36a2.733,2.733,0,0,1-2.732-2.733V1664.26a2.733,2.733,0,1,1,5.465,0v12.367A2.733,2.733,0,0,1,371.938,1679.36Z" transform="translate(-211.456 -1641.9)"/>
    <path id="Path_90" data-name="Path 90" d="M356.583,1687.919a2.733,2.733,0,0,1-2.732-2.733v-40.3a2.733,2.733,0,0,1,5.465,0v40.3A2.733,2.733,0,0,1,356.583,1687.919Z" transform="translate(-207.032 -1636.32)"/>
    <path id="Path_91" data-name="Path 91" d="M340.239,1681.866a1.5,1.5,0,0,1,1.491-1.491h0a1.491,1.491,0,0,1,1.491,1.491h0a1.492,1.492,0,0,1-1.491,1.495h0A1.5,1.5,0,0,1,340.239,1681.866Zm0-3.975a1.491,1.491,0,0,1,1.491-1.485h0a1.487,1.487,0,0,1,1.491,1.485h0a1.493,1.493,0,0,1-1.491,1.5h0A1.5,1.5,0,0,1,340.239,1677.891Zm0-3.974a1.491,1.491,0,0,1,1.491-1.485h0a1.487,1.487,0,0,1,1.491,1.485h0a1.488,1.488,0,0,1-1.491,1.491h0A1.492,1.492,0,0,1,340.239,1673.917Zm0-3.969a1.492,1.492,0,0,1,1.491-1.491h0a1.489,1.489,0,0,1,1.491,1.491h0a1.487,1.487,0,0,1-1.491,1.486h0A1.491,1.491,0,0,1,340.239,1669.947Zm0-3.974a1.5,1.5,0,0,1,1.491-1.5h0a1.492,1.492,0,0,1,1.491,1.5h0a1.488,1.488,0,0,1-1.491,1.486h0A1.491,1.491,0,0,1,340.239,1665.973Zm0-3.974a1.5,1.5,0,0,1,1.491-1.5h0a1.492,1.492,0,0,1,1.491,1.5h0a1.492,1.492,0,0,1-1.491,1.49h0A1.5,1.5,0,0,1,340.239,1662Zm0-3.979a1.5,1.5,0,0,1,1.491-1.491h0a1.492,1.492,0,0,1,1.491,1.491h0a1.493,1.493,0,0,1-1.491,1.5h0A1.5,1.5,0,0,1,340.239,1658.019Zm0-3.97a1.492,1.492,0,0,1,1.491-1.491h0a1.488,1.488,0,0,1,1.491,1.491h0a1.491,1.491,0,0,1-1.491,1.49h0A1.5,1.5,0,0,1,340.239,1654.05Z" transform="translate(-203.11 -1639.316)"/>
    <path id="Path_92" data-name="Path 92" d="M387.292,1687.919a2.733,2.733,0,0,1-2.732-2.733v-40.3a2.733,2.733,0,0,1,5.465,0v40.3A2.733,2.733,0,0,1,387.292,1687.919Z" transform="translate(-215.88 -1636.32)"/>
    <path id="Path_93" data-name="Path 93" d="M401.661,1681.866a1.487,1.487,0,0,1,1.491-1.486h0a1.49,1.49,0,0,1,1.49,1.486h0a1.491,1.491,0,0,1-1.49,1.49h0A1.488,1.488,0,0,1,401.661,1681.866Zm0-3.975a1.491,1.491,0,0,1,1.491-1.49h0a1.494,1.494,0,0,1,1.49,1.49h0a1.5,1.5,0,0,1-1.49,1.5h0A1.493,1.493,0,0,1,401.661,1677.891Zm0-3.969a1.492,1.492,0,0,1,1.491-1.495h0a1.5,1.5,0,0,1,1.49,1.495h0a1.5,1.5,0,0,1-1.49,1.491h0A1.492,1.492,0,0,1,401.661,1673.922Zm0-3.974a1.489,1.489,0,0,1,1.491-1.491h0a1.492,1.492,0,0,1,1.49,1.491h0a1.5,1.5,0,0,1-1.49,1.491h0A1.492,1.492,0,0,1,401.661,1669.947Zm0-3.979a1.487,1.487,0,0,1,1.491-1.486h0a1.49,1.49,0,0,1,1.49,1.486h0a1.492,1.492,0,0,1-1.49,1.491h0A1.489,1.489,0,0,1,401.661,1665.968Zm0-3.975a1.491,1.491,0,0,1,1.491-1.49h0a1.494,1.494,0,0,1,1.49,1.49h0a1.492,1.492,0,0,1-1.49,1.491h0A1.489,1.489,0,0,1,401.661,1661.994Zm0-3.969a1.493,1.493,0,0,1,1.491-1.5h0a1.5,1.5,0,0,1,1.49,1.5h0a1.5,1.5,0,0,1-1.49,1.491h0A1.492,1.492,0,0,1,401.661,1658.024Zm0-3.975a1.488,1.488,0,0,1,1.491-1.491h0a1.492,1.492,0,0,1,1.49,1.491h0a1.494,1.494,0,0,1-1.49,1.49h0A1.491,1.491,0,0,1,401.661,1654.05Z" transform="translate(-220.807 -1639.316)"/>
    <path id="Path_94" data-name="Path 94" d="M291.676,1672.219a2.732,2.732,0,0,1-2.732-2.732v-24.841a2.732,2.732,0,0,1,5.464,0v24.841A2.732,2.732,0,0,1,291.676,1672.219Z" transform="translate(-188.331 -1636.249)"/>
    <path id="Path_95" data-name="Path 95" d="M290.69,1699.087a1.5,1.5,0,0,1,1.49-1.491h0a1.492,1.492,0,0,1,1.491,1.491h0a1.492,1.492,0,0,1-1.491,1.5h0A1.5,1.5,0,0,1,290.69,1699.087Zm0-3.974a1.491,1.491,0,0,1,1.49-1.486h0a1.487,1.487,0,0,1,1.491,1.486h0a1.492,1.492,0,0,1-1.491,1.495h0A1.5,1.5,0,0,1,290.69,1695.113Zm0-3.974a1.49,1.49,0,0,1,1.49-1.486h0a1.487,1.487,0,0,1,1.491,1.486h0a1.488,1.488,0,0,1-1.491,1.49h0A1.491,1.491,0,0,1,290.69,1691.138Zm0-3.97a1.491,1.491,0,0,1,1.49-1.49h0a1.488,1.488,0,0,1,1.491,1.49h0a1.487,1.487,0,0,1-1.491,1.486h0A1.49,1.49,0,0,1,290.69,1687.168Z" transform="translate(-188.834 -1648.859)"/>
    <path id="Path_96" data-name="Path 96" d="M260.967,1672.219a2.733,2.733,0,0,1-2.732-2.732v-24.841a2.733,2.733,0,0,1,5.465,0v24.841A2.733,2.733,0,0,1,260.967,1672.219Z" transform="translate(-179.483 -1636.249)"/>
    <path id="Path_97" data-name="Path 97" d="M259.981,1699.087a1.5,1.5,0,0,1,1.491-1.491h0a1.491,1.491,0,0,1,1.49,1.491h0a1.492,1.492,0,0,1-1.49,1.5h0A1.5,1.5,0,0,1,259.981,1699.087Zm0-3.974a1.491,1.491,0,0,1,1.491-1.486h0a1.487,1.487,0,0,1,1.49,1.486h0a1.492,1.492,0,0,1-1.49,1.495h0A1.5,1.5,0,0,1,259.981,1695.113Zm0-3.974a1.49,1.49,0,0,1,1.491-1.486h0a1.487,1.487,0,0,1,1.49,1.486h0a1.488,1.488,0,0,1-1.49,1.49h0A1.492,1.492,0,0,1,259.981,1691.138Zm0-3.97a1.491,1.491,0,0,1,1.491-1.49h0a1.488,1.488,0,0,1,1.49,1.49h0a1.487,1.487,0,0,1-1.49,1.486h0A1.49,1.49,0,0,1,259.981,1687.168Z" transform="translate(-179.986 -1648.859)"/>
  </g>
</svg>
