<svg xmlns="http://www.w3.org/2000/svg" width="72.729" height="97.39" viewBox="0 0 72.729 97.39">
  <g id="Group_93" data-name="Group 93" transform="translate(-71.675 -307.512)">
    <path id="Path_228" data-name="Path 228" d="M90.823,338.226V315.973h29.934" transform="translate(16.704 6.487)" fill="none" stroke="#fff" stroke-miterlimit="10" stroke-width="2"/>
    <path id="Path_229" data-name="Path 229" d="M109.591,338.333V319.922H78.778" transform="translate(5.617 10.121)" fill="none" stroke="#fff" stroke-miterlimit="10" stroke-width="2"/>
    <path id="Path_230" data-name="Path 230" d="M95.641,341.333h6.11V322.922h10.019" transform="translate(21.139 12.883)" fill="none" stroke="#fff" stroke-miterlimit="10" stroke-width="2"/>
    <g id="Group_90" data-name="Group 90" transform="translate(92.181 351.948)">
      <g id="Group_89" data-name="Group 89">
        <path id="Path_231" data-name="Path 231" d="M83.4,357.147a2.606,2.606,0,0,1,.123-3.386,2.906,2.906,0,0,1,3.681-.148l6.987,4.338,1.544-24.478a2.288,2.288,0,0,1,2.285-2.145h0a2.288,2.288,0,0,1,2.278,2.059l2.641,14.76s11.607,1.406,13.353,1.888c1.185.327,3.088.864,3.088,4.025l-.115,12.638c-.031,3.789-1.621,2.591-1.621,7.9H97.826c0-1.853-4.213-4.406-5.852-6.731Z" transform="translate(-82.832 -331.328)" fill="none" stroke="#fff" stroke-linejoin="round" stroke-width="2"/>
      </g>
      <path id="Path_232" data-name="Path 232" d="M114.908,363.543v-9.683H87.688v9.683" transform="translate(-78.363 -310.589)" fill="none" stroke="#fff" stroke-miterlimit="10" stroke-width="2"/>
      <line id="Line_47" data-name="Line 47" y2="3.841" transform="translate(16.993 49.038)" fill="none" stroke="#fff" stroke-miterlimit="10" stroke-width="2"/>
    </g>
    <line id="Line_48" data-name="Line 48" y1="39.529" transform="translate(99.819 308.926)" fill="none" stroke="#fff" stroke-miterlimit="10" stroke-width="2"/>
    <path id="Path_233" data-name="Path 233" d="M97.9,339.492h-6.11v-14.57H73.053" transform="translate(0.347 14.723)" fill="none" stroke="#fff" stroke-miterlimit="10" stroke-width="2"/>
    <path id="Path_234" data-name="Path 234" d="M78.208,332.509l-5.129-5.129,5.129-5.129" transform="translate(0.372 12.265)" fill="none" stroke="#fff" stroke-miterlimit="10" stroke-width="2"/>
    <path id="Path_235" data-name="Path 235" d="M83.907,327.509l-5.129-5.129,5.129-5.129" transform="translate(5.617 7.663)" fill="none" stroke="#fff" stroke-miterlimit="10" stroke-width="2"/>
    <path id="Path_236" data-name="Path 236" d="M84.138,314.055l5.129-5.129,5.129,5.129" transform="translate(10.551 0)" fill="none" stroke="#fff" stroke-miterlimit="10" stroke-width="2"/>
    <path id="Path_237" data-name="Path 237" d="M103.7,323.561l5.129-5.129L103.7,313.3" transform="translate(28.561 4.028)" fill="none" stroke="#fff" stroke-miterlimit="10" stroke-width="2"/>
    <path id="Path_238" data-name="Path 238" d="M101.369,330.509l5.129-5.129-5.129-5.129" transform="translate(26.411 10.424)" fill="none" stroke="#fff" stroke-miterlimit="10" stroke-width="2"/>
    <path id="Path_239" data-name="Path 239" d="M92.252,345.7a9.252,9.252,0,1,1,6.681-.259" transform="translate(12.269 17.272)" fill="none" stroke="#fff" stroke-miterlimit="10" stroke-width="2"/>
    <g id="Group_91" data-name="Group 91" transform="translate(72.675 350.375)">
      <line id="Line_49" data-name="Line 49" y2="3.907" transform="translate(13.18 25.242)" fill="none" stroke="#fff" stroke-miterlimit="10" stroke-width="2"/>
      <line id="Line_50" data-name="Line 50" y2="3.907" transform="translate(9.799)" fill="none" stroke="#fff" stroke-miterlimit="10" stroke-width="2"/>
      <line id="Line_51" data-name="Line 51" y2="3.907" transform="translate(0 7.813)" fill="none" stroke="#fff" stroke-miterlimit="10" stroke-width="2"/>
      <line id="Line_52" data-name="Line 52" y1="3.907" transform="translate(5.893 15.436)" fill="none" stroke="#fff" stroke-miterlimit="10" stroke-width="2"/>
      <line id="Line_53" data-name="Line 53" y2="3.907" transform="translate(15.624 11.72)" fill="none" stroke="#fff" stroke-miterlimit="10" stroke-width="2"/>
    </g>
    <g id="Group_92" data-name="Group 92" transform="translate(127.78 348.455)">
      <line id="Line_54" data-name="Line 54" y2="3.907" transform="translate(13.18 27.162)" fill="none" stroke="#fff" stroke-miterlimit="10" stroke-width="2"/>
      <line id="Line_55" data-name="Line 55" y2="3.907" transform="translate(7.879)" fill="none" stroke="#fff" stroke-miterlimit="10" stroke-width="2"/>
      <line id="Line_56" data-name="Line 56" y2="3.907" transform="translate(0 9.734)" fill="none" stroke="#fff" stroke-miterlimit="10" stroke-width="2"/>
      <line id="Line_57" data-name="Line 57" y1="3.907" transform="translate(7.813 17.357)" fill="none" stroke="#fff" stroke-miterlimit="10" stroke-width="2"/>
      <line id="Line_58" data-name="Line 58" y2="3.907" transform="translate(15.624 9.799)" fill="none" stroke="#fff" stroke-miterlimit="10" stroke-width="2"/>
    </g>
  </g>
</svg>
