<?xml version="1.0" encoding="utf-8"?>
<!-- Generator: Adobe Illustrator 24.2.0, SVG Export Plug-In . SVG Version: 6.00 Build 0)  -->
<svg version="1.1" id="Component_1_1" xmlns="http://www.w3.org/2000/svg" xmlns:xlink="http://www.w3.org/1999/xlink" x="0px"
	 y="0px" viewBox="0 0 671 811.5" style="enable-background:new 0 0 671 811.5;" xml:space="preserve">
<style type="text/css">
	.st0{fill:#F4CA57;}
</style>
<path id="Rectangle_30" class="st0" d="M105.5,111.1L105.5,111.1c58.3,0,105.5,47.2,105.5,105.5v268c0,58.3-47.2,105.5-105.5,105.5
	l0,0C47.2,590.1,0,542.9,0,484.6v-268C0,158.4,47.2,111.1,105.5,111.1z"/>
<path id="Rectangle_31" class="st0" d="M335.5,261.1L335.5,261.1c58.3,0,105.5,47.2,105.5,105.5v268c0,58.3-47.2,105.5-105.5,105.5
	l0,0c-58.3,0-105.5-47.2-105.5-105.5v-268C230,308.4,277.2,261.1,335.5,261.1z"/>
<path id="Rectangle_32" class="st0" d="M565.5,161.1L565.5,161.1c58.3,0,105.5,47.2,105.5,105.5v268c0,58.3-47.2,105.5-105.5,105.5
	l0,0c-58.3,0-105.5-47.2-105.5-105.5v-268C460,208.4,507.2,161.1,565.5,161.1z"/>
<g>
	<g id="Mask_Group_1" transform="translate(-437 -2779)">
		<path class="st0" d="M900.1,2779c-2,8.2-3.1,16.8-3.1,25.6c0,58.3,47.2,105.5,105.5,105.5c58.3,0,105.5-47.2,105.5-105.5
			c0-8.8-1.1-17.4-3.1-25.6H900.1z"/>
		<path class="st0" d="M439.8,2779c11,46.5,52.8,81.1,102.7,81.1s91.7-34.6,102.7-81.1H439.8z"/>
		<path class="st0" d="M667,2779v125.6c0,58.3,47.2,105.5,105.5,105.5S878,2962.9,878,2904.6V2779H667z"/>
	</g>
</g>
<g>
	<g id="Mask_Group_2" transform="translate(-437 -2779)">
		<path class="st0" d="M1108,3590.5v-35.9c0-58.3-47.2-105.5-105.5-105.5c-58.3,0-105.5,47.2-105.5,105.5v35.9H1108z"/>
		<path class="st0" d="M856.3,3590.5c-19.3-25.1-49.6-41.4-83.8-41.4s-64.5,16.2-83.8,41.4H856.3z"/>
		<path class="st0" d="M481.2,3590.5h122.6c26.8-19.1,44.2-50.5,44.2-85.9c0-58.3-47.2-105.5-105.5-105.5S437,3446.4,437,3504.6
			C437,3540,454.4,3571.4,481.2,3590.5z"/>
	</g>
</g>
</svg>
