<svg xmlns="http://www.w3.org/2000/svg" width="223.042" height="39.282" viewBox="0 0 223.042 39.282">
  <g id="Group_13" data-name="Group 13" transform="translate(-147.609 -1633.956)">
    <g id="Group_10" data-name="Group 10" transform="translate(293.82 1634.391)" opacity="0.197">
      <path id="Path_43" data-name="Path 43" d="M453.159,1635.877a4.731,4.731,0,0,1,1.826,1.919,6.618,6.618,0,0,1,0,5.724,4.677,4.677,0,0,1-1.826,1.911,5.34,5.34,0,0,1-2.716.677h-3.53a1.151,1.151,0,0,1-.8-.3.924.924,0,0,1-.334-.711v-8.911a.9.9,0,0,1,.334-.7,1.169,1.169,0,0,1,.8-.291h3.53A5.286,5.286,0,0,1,453.159,1635.877Zm-1.028,8.071a3.055,3.055,0,0,0,1.131-1.32,4.579,4.579,0,0,0,.4-1.971,4.636,4.636,0,0,0-.4-1.979,3.09,3.09,0,0,0-1.139-1.337,3.052,3.052,0,0,0-1.68-.472h-2.708v7.541h2.708A3.076,3.076,0,0,0,452.131,1643.949Z" transform="translate(-445.782 -1635.02)"/>
      <path id="Path_44" data-name="Path 44" d="M486.175,1635.322l4.85,9.511a.876.876,0,0,1,.137.462.687.687,0,0,1-.308.583,1.2,1.2,0,0,1-.72.223,1.087,1.087,0,0,1-.505-.128.822.822,0,0,1-.369-.368l-1.2-2.382h-5.518l-1.2,2.382a.785.785,0,0,1-.351.377,1.093,1.093,0,0,1-.506.12,1.134,1.134,0,0,1-.719-.257.766.766,0,0,1-.326-.617.929.929,0,0,1,.086-.342l4.884-9.563a.706.706,0,0,1,.334-.376,1.29,1.29,0,0,1,.557-.1A.89.89,0,0,1,486.175,1635.322Zm-2.794,6.238h3.839l-1.919-3.822Z" transform="translate(-462.936 -1634.842)"/>
      <path id="Path_45" data-name="Path 45" d="M524.849,1635.457a.845.845,0,0,1,.274.626.824.824,0,0,1-.274.608,1.011,1.011,0,0,1-.737.266h-3.188l.017,8.243a.791.791,0,0,1-.317.669,1.13,1.13,0,0,1-.694.24,1.08,1.08,0,0,1-.694-.24.807.807,0,0,1-.3-.669v-8.243h-3.171a.945.945,0,0,1-.711-.257.857.857,0,0,1-.248-.617.888.888,0,0,1,.248-.626.927.927,0,0,1,.711-.265h8.346A1.013,1.013,0,0,1,524.849,1635.457Z" transform="translate(-480.96 -1635.02)"/>
      <path id="Path_46" data-name="Path 46" d="M554,1635.322l4.85,9.511a.871.871,0,0,1,.137.462.687.687,0,0,1-.308.583,1.2,1.2,0,0,1-.72.223,1.087,1.087,0,0,1-.505-.128.818.818,0,0,1-.369-.368l-1.2-2.382H550.37l-1.2,2.382a.785.785,0,0,1-.351.377,1.093,1.093,0,0,1-.506.12,1.133,1.133,0,0,1-.719-.257.765.765,0,0,1-.326-.617.927.927,0,0,1,.086-.342l4.884-9.563a.709.709,0,0,1,.334-.376,1.29,1.29,0,0,1,.557-.1A.89.89,0,0,1,554,1635.322Zm-2.794,6.238h3.839l-1.919-3.822Z" transform="translate(-497.504 -1634.842)"/>
      <path id="Path_47" data-name="Path 47" d="M486.175,1663.276l4.85,9.511a.877.877,0,0,1,.137.463.687.687,0,0,1-.308.583,1.2,1.2,0,0,1-.72.223,1.084,1.084,0,0,1-.505-.128.82.82,0,0,1-.369-.368l-1.2-2.382h-5.518l-1.2,2.382a.784.784,0,0,1-.351.377,1.09,1.09,0,0,1-.506.12,1.134,1.134,0,0,1-.719-.257.765.765,0,0,1-.326-.617.931.931,0,0,1,.086-.343l4.884-9.563a.706.706,0,0,1,.334-.377,1.292,1.292,0,0,1,.557-.1A.89.89,0,0,1,486.175,1663.276Zm-2.794,6.238h3.839l-1.919-3.822Z" transform="translate(-462.936 -1649.089)"/>
      <path id="Path_48" data-name="Path 48" d="M522.656,1663.831a4.732,4.732,0,0,1,1.825,1.919,6.609,6.609,0,0,1,0,5.723,4.675,4.675,0,0,1-1.825,1.911,5.344,5.344,0,0,1-2.717.677h-3.53a1.15,1.15,0,0,1-.8-.3.925.925,0,0,1-.334-.711v-8.912a.9.9,0,0,1,.334-.7,1.17,1.17,0,0,1,.8-.292h3.53A5.291,5.291,0,0,1,522.656,1663.831Zm-1.028,8.072a3.064,3.064,0,0,0,1.131-1.32,4.587,4.587,0,0,0,.4-1.971,4.646,4.646,0,0,0-.4-1.979,3.088,3.088,0,0,0-1.14-1.337,3.048,3.048,0,0,0-1.679-.472h-2.708v7.541h2.708A3.081,3.081,0,0,0,521.628,1671.9Z" transform="translate(-481.201 -1649.267)"/>
      <path id="Path_49" data-name="Path 49" d="M558.788,1672.623a.882.882,0,0,1,.257.617.779.779,0,0,1-.249.583.957.957,0,0,1-.693.24h-6.8a1.135,1.135,0,0,1-.814-.3.965.965,0,0,1-.317-.728v-8.877a.937.937,0,0,1,.317-.719,1.155,1.155,0,0,1,.814-.292h6.8a.9.9,0,0,1,.677.24.808.808,0,0,1,.231.583.844.844,0,0,1-.248.591.86.86,0,0,1-.66.265h-5.981v3h5.672a.85.85,0,0,1,.89.857.811.811,0,0,1-.231.583.877.877,0,0,1-.659.24h-5.672v2.844H558.1A.9.9,0,0,1,558.788,1672.623Z" transform="translate(-498.982 -1649.267)"/>
      <g id="Group_8" data-name="Group 8" transform="translate(0 13.879)">
        <path id="Path_50" data-name="Path 50" d="M456.364,1663.4a.968.968,0,0,0-.677-.257,1.081,1.081,0,0,0-.505.129,1.025,1.025,0,0,0-.4.368l-3.564,5.621-3.582-5.6a1.129,1.129,0,0,0-.394-.378.959.959,0,0,0-1.166.138.92.92,0,0,0-.291.7v6a.906.906,0,0,0,.085.4.993.993,0,0,0,1.826-.016.9.9,0,0,0,.077-.383v-2.7l2.519,3.924a.993.993,0,0,0,.394.4,1.061,1.061,0,0,0,.532.146,1.072,1.072,0,0,0,.514-.128.946.946,0,0,0,.378-.369l2.553-3.993v2.722a.871.871,0,0,0,.132.485.986.986,0,0,0,1.808-.2.925.925,0,0,0,.048-.289v-6.012A.9.9,0,0,0,456.364,1663.4Z" transform="translate(-445.782 -1663.146)"/>
        <path id="Path_51" data-name="Path 51" d="M464.88,1681.529a.994.994,0,1,0,.994.994A.994.994,0,0,0,464.88,1681.529Z" transform="translate(-455.009 -1672.515)"/>
        <path id="Path_52" data-name="Path 52" d="M446.775,1681.529a.994.994,0,1,0,.994.994A.994.994,0,0,0,446.775,1681.529Z" transform="translate(-445.782 -1672.515)"/>
      </g>
      <path id="Path_53" data-name="Path 53" d="M488.052,1691.341a1.179,1.179,0,0,1,1.414-.009.794.794,0,0,1,.291.66v5.21a5.185,5.185,0,0,1-.642,2.6,4.469,4.469,0,0,1-1.808,1.756,6.172,6.172,0,0,1-5.415,0,4.464,4.464,0,0,1-1.808-1.756,5.186,5.186,0,0,1-.643-2.6v-5.244a.75.75,0,0,1,.292-.634,1.122,1.122,0,0,1,.7-.223,1.187,1.187,0,0,1,.728.223.761.761,0,0,1,.3.651v5.227a3.166,3.166,0,0,0,.857,2.305,3.007,3.007,0,0,0,2.262.882,3.09,3.09,0,0,0,2.3-.882,3.137,3.137,0,0,0,.873-2.305v-5.193A.806.806,0,0,1,488.052,1691.341Z" transform="translate(-462.936 -1663.514)"/>
      <path id="Path_54" data-name="Path 54" d="M515.7,1691.238a1.123,1.123,0,0,1,.394.377l3.582,5.6,3.564-5.621a1.036,1.036,0,0,1,.4-.368,1.091,1.091,0,0,1,.506-.129.969.969,0,0,1,.677.257.9.9,0,0,1,.282.7v9.066a.775.775,0,0,1-.308.66,1.141,1.141,0,0,1-.7.231,1.062,1.062,0,0,1-.694-.231.8.8,0,0,1-.282-.66v-5.775l-2.554,3.993a.942.942,0,0,1-.377.368,1.073,1.073,0,0,1-.514.128,1.063,1.063,0,0,1-.532-.146.989.989,0,0,1-.394-.4l-2.519-3.924v5.758a.785.785,0,0,1-.3.66,1.105,1.105,0,0,1-.694.231,1.093,1.093,0,0,1-.7-.231.792.792,0,0,1-.291-.66v-9.048a.919.919,0,0,1,.291-.7.959.959,0,0,1,1.166-.137Z" transform="translate(-480.675 -1663.514)"/>
      <path id="Path_55" data-name="Path 55" d="M554,1691.23l4.85,9.511a.87.87,0,0,1,.137.462.687.687,0,0,1-.308.583,1.2,1.2,0,0,1-.72.223,1.082,1.082,0,0,1-.506-.129.818.818,0,0,1-.368-.368l-1.2-2.382H550.37l-1.2,2.382a.788.788,0,0,1-.351.378,1.093,1.093,0,0,1-.506.12,1.134,1.134,0,0,1-.719-.257.764.764,0,0,1-.326-.617.925.925,0,0,1,.086-.342l4.883-9.563a.71.71,0,0,1,.334-.376,1.281,1.281,0,0,1,.557-.1A.889.889,0,0,1,554,1691.23Zm-2.794,6.238h3.839l-1.919-3.822Z" transform="translate(-497.504 -1663.335)"/>
      <path id="Path_56" data-name="Path 56" d="M590.984,1691.324a1.234,1.234,0,0,1,.728-.223,1.157,1.157,0,0,1,.7.214.728.728,0,0,1,.291.625v9.049a.912.912,0,0,1-.342.754,1.252,1.252,0,0,1-.806.274,1.3,1.3,0,0,1-.574-.137,1.237,1.237,0,0,1-.454-.359l-5.244-6.752.069.96v5.381a.8.8,0,0,1-.3.677,1.132,1.132,0,0,1-.712.231,1.157,1.157,0,0,1-.729-.231.8.8,0,0,1-.3-.677v-8.963a.977.977,0,0,1,.308-.771,1.076,1.076,0,0,1,.738-.274,1.141,1.141,0,0,1,.548.129,1.462,1.462,0,0,1,.446.385l5.381,6.992-.069-1.148v-5.519A.712.712,0,0,1,590.984,1691.324Z" transform="translate(-515.875 -1663.514)"/>
      <g id="Group_9" data-name="Group 9" transform="translate(0 27.415)">
        <path id="Path_57" data-name="Path 57" d="M464.844,1692.738a.994.994,0,1,0-.994-.994A.994.994,0,0,0,464.844,1692.738Z" transform="translate(-454.99 -1690.75)"/>
        <path id="Path_58" data-name="Path 58" d="M446.775,1692.738a.994.994,0,1,0-.993-.994A.994.994,0,0,0,446.775,1692.738Z" transform="translate(-445.782 -1690.75)"/>
        <path id="Path_59" data-name="Path 59" d="M455.636,1696.942a.994.994,0,0,0-.994.994v.94l-6.877.012v-.9c0-.016,0-.031,0-.047a.994.994,0,1,0-1.987,0v6.132a.831.831,0,0,0,.3.677,1.078,1.078,0,0,0,.712.249,1.022,1.022,0,0,0,.668-.24.838.838,0,0,0,.291-.686v-3.531h6.889v3.531a.837.837,0,0,0,.291.686,1.046,1.046,0,0,0,.686.24,1.087,1.087,0,0,0,.7-.249.821.821,0,0,0,.308-.677v-6.132A.994.994,0,0,0,455.636,1696.942Z" transform="translate(-445.782 -1693.906)"/>
      </g>
    </g>
    <g id="Group_12" data-name="Group 12" transform="translate(147.609 1633.956)">
      <g id="Group_11" data-name="Group 11">
        <path id="Path_60" data-name="Path 60" d="M178.323,1672.8a1.028,1.028,0,0,1,1.027-1.027h0a1.029,1.029,0,0,1,1.026,1.027h0a1.027,1.027,0,0,1-1.026,1.027h0A1.026,1.026,0,0,1,178.323,1672.8Zm0-2.738a1.028,1.028,0,0,1,1.027-1.027h0a1.029,1.029,0,0,1,1.026,1.027h0a1.027,1.027,0,0,1-1.026,1.027h0A1.026,1.026,0,0,1,178.323,1670.059Zm0-2.738a1.028,1.028,0,0,1,1.027-1.027h0a1.029,1.029,0,0,1,1.026,1.027h0a1.027,1.027,0,0,1-1.026,1.026h0A1.026,1.026,0,0,1,178.323,1667.321Zm0-2.738a1.028,1.028,0,0,1,1.027-1.027h0a1.029,1.029,0,0,1,1.026,1.027h0a1.027,1.027,0,0,1-1.026,1.026h0A1.025,1.025,0,0,1,178.323,1664.584Zm0-2.738a1.028,1.028,0,0,1,1.027-1.027h0a1.029,1.029,0,0,1,1.026,1.027h0a1.027,1.027,0,0,1-1.026,1.026h0A1.025,1.025,0,0,1,178.323,1661.846Zm0-2.738a1.028,1.028,0,0,1,1.027-1.027h0a1.029,1.029,0,0,1,1.026,1.027h0a1.027,1.027,0,0,1-1.026,1.026h0A1.025,1.025,0,0,1,178.323,1659.108Zm0-2.738a1.028,1.028,0,0,1,1.027-1.026h0a1.029,1.029,0,0,1,1.026,1.026h0a1.027,1.027,0,0,1-1.026,1.027h0A1.026,1.026,0,0,1,178.323,1656.37Z" transform="translate(-163.262 -1644.856)"/>
        <path id="Path_61" data-name="Path 61" d="M178.459,1704.815a1.883,1.883,0,0,1-1.882-1.882v-5.053a1.882,1.882,0,1,1,3.764,0v5.053A1.882,1.882,0,0,1,178.459,1704.815Z" transform="translate(-162.372 -1665.575)"/>
        <path id="Path_62" data-name="Path 62" d="M178.459,1643.168a1.882,1.882,0,0,1-1.882-1.882v-5.1a1.882,1.882,0,0,1,3.764,0v5.1A1.882,1.882,0,0,1,178.459,1643.168Z" transform="translate(-162.372 -1634.135)"/>
        <path id="Path_63" data-name="Path 63" d="M163.1,1673.562a1.882,1.882,0,0,1-1.882-1.882v-27.986a1.882,1.882,0,1,1,3.764,0v27.986A1.882,1.882,0,0,1,163.1,1673.562Z" transform="translate(-154.547 -1637.959)"/>
        <path id="Path_64" data-name="Path 64" d="M147.609,1672.743a1.03,1.03,0,0,1,1.027-1.027h0a1.027,1.027,0,0,1,1.027,1.027h0a1.026,1.026,0,0,1-1.027,1.027h0A1.028,1.028,0,0,1,147.609,1672.743Zm0-2.738a1.03,1.03,0,0,1,1.027-1.027h0a1.027,1.027,0,0,1,1.027,1.027h0a1.026,1.026,0,0,1-1.027,1.027h0A1.028,1.028,0,0,1,147.609,1670.005Zm0-2.734a1.028,1.028,0,0,1,1.027-1.027h0a1.025,1.025,0,0,1,1.027,1.027h0a1.027,1.027,0,0,1-1.027,1.026h0A1.03,1.03,0,0,1,147.609,1667.271Zm0-2.741a1.03,1.03,0,0,1,1.027-1.027h0a1.027,1.027,0,0,1,1.027,1.027h0a1.025,1.025,0,0,1-1.027,1.027h0A1.028,1.028,0,0,1,147.609,1664.53Zm0-2.738a1.03,1.03,0,0,1,1.027-1.027h0a1.027,1.027,0,0,1,1.027,1.027h0a1.025,1.025,0,0,1-1.027,1.026h0A1.028,1.028,0,0,1,147.609,1661.792Zm0-2.734a1.028,1.028,0,0,1,1.027-1.027h0a1.025,1.025,0,0,1,1.027,1.027h0a1.027,1.027,0,0,1-1.027,1.026h0A1.03,1.03,0,0,1,147.609,1659.058Zm0-2.741a1.027,1.027,0,0,1,1.027-1.023h0a1.024,1.024,0,0,1,1.027,1.023h0a1.025,1.025,0,0,1-1.027,1.026h0A1.028,1.028,0,0,1,147.609,1656.317Zm0-2.735a1.028,1.028,0,0,1,1.027-1.026h0a1.025,1.025,0,0,1,1.027,1.026h0a1.027,1.027,0,0,1-1.027,1.027h0A1.03,1.03,0,0,1,147.609,1653.582Z" transform="translate(-147.609 -1643.435)"/>
        <path id="Path_65" data-name="Path 65" d="M193.677,1672.9a1.027,1.027,0,0,1,1.026-1.027h0a1.027,1.027,0,0,1,1.027,1.027h0a1.026,1.026,0,0,1-1.027,1.027h0A1.025,1.025,0,0,1,193.677,1672.9Zm0-2.738a1.027,1.027,0,0,1,1.026-1.027h0a1.027,1.027,0,0,1,1.027,1.027h0a1.025,1.025,0,0,1-1.027,1.026h0A1.025,1.025,0,0,1,193.677,1670.167Zm0-2.738a1.027,1.027,0,0,1,1.026-1.027h0a1.027,1.027,0,0,1,1.027,1.027h0a1.025,1.025,0,0,1-1.027,1.026h0A1.025,1.025,0,0,1,193.677,1667.429Zm0-2.738a1.027,1.027,0,0,1,1.026-1.027h0a1.027,1.027,0,0,1,1.027,1.027h0a1.025,1.025,0,0,1-1.027,1.026h0A1.025,1.025,0,0,1,193.677,1664.691Zm0-2.738a1.027,1.027,0,0,1,1.026-1.027h0a1.027,1.027,0,0,1,1.027,1.027h0a1.025,1.025,0,0,1-1.027,1.026h0A1.025,1.025,0,0,1,193.677,1661.954Z" transform="translate(-171.087 -1647.702)"/>
        <path id="Path_66" data-name="Path 66" d="M193.814,1697.75a1.882,1.882,0,0,1-1.882-1.882v-4.715a1.882,1.882,0,1,1,3.764,0v4.715A1.882,1.882,0,0,1,193.814,1697.75Z" transform="translate(-170.198 -1662.147)"/>
        <path id="Path_67" data-name="Path 67" d="M193.814,1650.29a1.882,1.882,0,0,1-1.882-1.882v-4.714a1.882,1.882,0,1,1,3.764,0v4.714A1.882,1.882,0,0,1,193.814,1650.29Z" transform="translate(-170.198 -1637.959)"/>
        <path id="Path_68" data-name="Path 68" d="M209.168,1673.67a1.882,1.882,0,0,1-1.882-1.882V1654.41a1.882,1.882,0,1,1,3.764,0v17.377A1.882,1.882,0,0,1,209.168,1673.67Z" transform="translate(-178.023 -1643.421)"/>
        <path id="Path_69" data-name="Path 69" d="M244.964,1673.67a1.882,1.882,0,0,1-1.882-1.882V1654.41a1.882,1.882,0,1,1,3.764,0v17.377A1.882,1.882,0,0,1,244.964,1673.67Z" transform="translate(-196.266 -1643.421)"/>
        <path id="Path_70" data-name="Path 70" d="M306.291,1673.67a1.882,1.882,0,0,1-1.882-1.882V1654.41a1.882,1.882,0,1,1,3.764,0v17.377A1.882,1.882,0,0,1,306.291,1673.67Z" transform="translate(-227.521 -1643.421)"/>
        <path id="Path_71" data-name="Path 71" d="M275.336,1710.9a1.027,1.027,0,0,1,1.027-1.027h0a1.029,1.029,0,0,1,1.026,1.027h0a1.028,1.028,0,0,1-1.026,1.027h0A1.026,1.026,0,0,1,275.336,1710.9Z" transform="translate(-212.704 -1672.649)"/>
        <path id="Path_72" data-name="Path 72" d="M275.336,1705.322a1.027,1.027,0,0,1,1.027-1.027h0a1.03,1.03,0,0,1,1.026,1.027h0a1.028,1.028,0,0,1-1.026,1.027h0A1.026,1.026,0,0,1,275.336,1705.322Z" transform="translate(-212.704 -1669.804)"/>
        <path id="Path_73" data-name="Path 73" d="M275.336,1657.667a1.027,1.027,0,0,1,1.027-1.027h0a1.03,1.03,0,0,1,1.026,1.027h0a1.027,1.027,0,0,1-1.026,1.026h0A1.025,1.025,0,0,1,275.336,1657.667Z" transform="translate(-212.704 -1645.517)"/>
        <path id="Path_74" data-name="Path 74" d="M275.336,1652.083a1.027,1.027,0,0,1,1.027-1.026h0a1.029,1.029,0,0,1,1.026,1.026h0a1.027,1.027,0,0,1-1.026,1.027h0A1.025,1.025,0,0,1,275.336,1652.083Z" transform="translate(-212.704 -1642.672)"/>
        <path id="Path_75" data-name="Path 75" d="M275.336,1646.5a1.027,1.027,0,0,1,1.027-1.026h0a1.029,1.029,0,0,1,1.026,1.026h0a1.027,1.027,0,0,1-1.026,1.027h0A1.025,1.025,0,0,1,275.336,1646.5Z" transform="translate(-212.704 -1639.826)"/>
        <path id="Path_76" data-name="Path 76" d="M275.336,1640.917a1.027,1.027,0,0,1,1.027-1.026h0a1.029,1.029,0,0,1,1.026,1.026h0a1.027,1.027,0,0,1-1.026,1.027h0A1.025,1.025,0,0,1,275.336,1640.917Z" transform="translate(-212.704 -1636.981)"/>
        <path id="Path_77" data-name="Path 77" d="M275.336,1635.334a1.027,1.027,0,0,1,1.027-1.026h0a1.029,1.029,0,0,1,1.026,1.026h0a1.028,1.028,0,0,1-1.026,1.027h0A1.026,1.026,0,0,1,275.336,1635.334Z" transform="translate(-212.704 -1634.135)"/>
        <path id="Path_78" data-name="Path 78" d="M275.471,1682.083a1.882,1.882,0,0,1-1.882-1.882v-16.1a1.882,1.882,0,0,1,3.764,0v16.1A1.882,1.882,0,0,1,275.471,1682.083Z" transform="translate(-211.814 -1648.362)"/>
        <path id="Path_79" data-name="Path 79" d="M370.946,1657.315a1.03,1.03,0,0,1,1.027-1.026h0a1.03,1.03,0,0,1,1.03,1.026h0a1.028,1.028,0,0,1-1.03,1.027h0A1.028,1.028,0,0,1,370.946,1657.315Z" transform="translate(-261.432 -1645.338)"/>
        <path id="Path_80" data-name="Path 80" d="M370.946,1651.732a1.03,1.03,0,0,1,1.027-1.027h0a1.03,1.03,0,0,1,1.03,1.027h0a1.028,1.028,0,0,1-1.03,1.027h0A1.028,1.028,0,0,1,370.946,1651.732Z" transform="translate(-261.432 -1642.492)"/>
        <path id="Path_81" data-name="Path 81" d="M370.946,1646.149a1.03,1.03,0,0,1,1.027-1.027h0a1.03,1.03,0,0,1,1.03,1.027h0a1.028,1.028,0,0,1-1.03,1.027h0A1.028,1.028,0,0,1,370.946,1646.149Z" transform="translate(-261.432 -1639.647)"/>
        <path id="Path_82" data-name="Path 82" d="M370.946,1640.566a1.03,1.03,0,0,1,1.027-1.027h0a1.03,1.03,0,0,1,1.03,1.027h0a1.028,1.028,0,0,1-1.03,1.027h0A1.028,1.028,0,0,1,370.946,1640.566Z" transform="translate(-261.432 -1636.801)"/>
        <path id="Path_83" data-name="Path 83" d="M370.946,1634.983a1.03,1.03,0,0,1,1.027-1.027h0a1.03,1.03,0,0,1,1.03,1.027h0a1.028,1.028,0,0,1-1.03,1.027h0A1.028,1.028,0,0,1,370.946,1634.983Z" transform="translate(-261.432 -1633.956)"/>
        <path id="Path_84" data-name="Path 84" d="M370.946,1710.9a1.03,1.03,0,0,1,1.027-1.027h0A1.03,1.03,0,0,1,373,1710.9h0a1.028,1.028,0,0,1-1.03,1.027h0A1.028,1.028,0,0,1,370.946,1710.9Z" transform="translate(-261.432 -1672.649)"/>
        <path id="Path_85" data-name="Path 85" d="M370.946,1705.322a1.03,1.03,0,0,1,1.027-1.027h0a1.03,1.03,0,0,1,1.03,1.027h0a1.028,1.028,0,0,1-1.03,1.027h0A1.028,1.028,0,0,1,370.946,1705.322Z" transform="translate(-261.432 -1669.804)"/>
        <path id="Path_86" data-name="Path 86" d="M370.946,1699.739a1.03,1.03,0,0,1,1.027-1.027h0a1.03,1.03,0,0,1,1.03,1.027h0a1.028,1.028,0,0,1-1.03,1.027h0A1.028,1.028,0,0,1,370.946,1699.739Z" transform="translate(-261.432 -1666.959)"/>
        <path id="Path_87" data-name="Path 87" d="M370.946,1694.156a1.03,1.03,0,0,1,1.027-1.027h0a1.03,1.03,0,0,1,1.03,1.027h0a1.028,1.028,0,0,1-1.03,1.026h0A1.028,1.028,0,0,1,370.946,1694.156Z" transform="translate(-261.432 -1664.113)"/>
        <path id="Path_88" data-name="Path 88" d="M370.946,1688.573a1.03,1.03,0,0,1,1.027-1.027h0a1.03,1.03,0,0,1,1.03,1.027h0a1.028,1.028,0,0,1-1.03,1.026h0A1.028,1.028,0,0,1,370.946,1688.573Z" transform="translate(-261.432 -1661.268)"/>
        <path id="Path_89" data-name="Path 89" d="M371.088,1673.811a1.882,1.882,0,0,1-1.882-1.882v-8.519a1.882,1.882,0,1,1,3.764,0v8.519A1.883,1.883,0,0,1,371.088,1673.811Z" transform="translate(-260.545 -1648.007)"/>
        <path id="Path_90" data-name="Path 90" d="M355.733,1673.679a1.882,1.882,0,0,1-1.882-1.882v-27.756a1.882,1.882,0,0,1,3.764,0V1671.8A1.883,1.883,0,0,1,355.733,1673.679Z" transform="translate(-252.719 -1638.137)"/>
        <path id="Path_91" data-name="Path 91" d="M340.239,1672.746a1.03,1.03,0,0,1,1.027-1.027h0a1.027,1.027,0,0,1,1.027,1.027h0a1.028,1.028,0,0,1-1.027,1.03h0A1.031,1.031,0,0,1,340.239,1672.746Zm0-2.738a1.027,1.027,0,0,1,1.027-1.023h0a1.024,1.024,0,0,1,1.027,1.023h0a1.028,1.028,0,0,1-1.027,1.03h0A1.031,1.031,0,0,1,340.239,1670.008Zm0-2.738a1.027,1.027,0,0,1,1.027-1.023h0a1.024,1.024,0,0,1,1.027,1.023h0a1.025,1.025,0,0,1-1.027,1.027h0A1.028,1.028,0,0,1,340.239,1667.271Zm0-2.734a1.028,1.028,0,0,1,1.027-1.027h0a1.026,1.026,0,0,1,1.027,1.027h0a1.025,1.025,0,0,1-1.027,1.023h0A1.027,1.027,0,0,1,340.239,1664.536Zm0-2.738a1.03,1.03,0,0,1,1.027-1.03h0a1.028,1.028,0,0,1,1.027,1.03h0a1.025,1.025,0,0,1-1.027,1.023h0A1.027,1.027,0,0,1,340.239,1661.8Zm0-2.738a1.031,1.031,0,0,1,1.027-1.03h0a1.028,1.028,0,0,1,1.027,1.03h0a1.028,1.028,0,0,1-1.027,1.027h0A1.03,1.03,0,0,1,340.239,1659.061Zm0-2.741a1.03,1.03,0,0,1,1.027-1.027h0a1.027,1.027,0,0,1,1.027,1.027h0a1.028,1.028,0,0,1-1.027,1.03h0A1.031,1.031,0,0,1,340.239,1656.32Zm0-2.734a1.028,1.028,0,0,1,1.027-1.027h0a1.025,1.025,0,0,1,1.027,1.027h0a1.027,1.027,0,0,1-1.027,1.026h0A1.03,1.03,0,0,1,340.239,1653.586Z" transform="translate(-245.782 -1643.437)"/>
        <path id="Path_92" data-name="Path 92" d="M386.442,1673.679a1.882,1.882,0,0,1-1.882-1.882v-27.756a1.882,1.882,0,0,1,3.764,0V1671.8A1.882,1.882,0,0,1,386.442,1673.679Z" transform="translate(-268.37 -1638.137)"/>
        <path id="Path_93" data-name="Path 93" d="M401.661,1672.746a1.025,1.025,0,0,1,1.027-1.023h0a1.027,1.027,0,0,1,1.026,1.023h0a1.027,1.027,0,0,1-1.026,1.026h0A1.025,1.025,0,0,1,401.661,1672.746Zm0-2.738a1.027,1.027,0,0,1,1.027-1.026h0a1.029,1.029,0,0,1,1.026,1.026h0a1.03,1.03,0,0,1-1.026,1.03h0A1.028,1.028,0,0,1,401.661,1670.008Zm0-2.734a1.028,1.028,0,0,1,1.027-1.03h0a1.03,1.03,0,0,1,1.026,1.03h0a1.03,1.03,0,0,1-1.026,1.027h0A1.027,1.027,0,0,1,401.661,1667.274Zm0-2.738a1.026,1.026,0,0,1,1.027-1.027h0a1.028,1.028,0,0,1,1.026,1.027h0a1.03,1.03,0,0,1-1.026,1.027h0A1.027,1.027,0,0,1,401.661,1664.536Zm0-2.741a1.025,1.025,0,0,1,1.027-1.023h0a1.027,1.027,0,0,1,1.026,1.023h0a1.028,1.028,0,0,1-1.026,1.027h0A1.026,1.026,0,0,1,401.661,1661.8Zm0-2.738a1.027,1.027,0,0,1,1.027-1.027h0a1.03,1.03,0,0,1,1.026,1.027h0a1.028,1.028,0,0,1-1.026,1.027h0A1.026,1.026,0,0,1,401.661,1659.058Zm0-2.734a1.028,1.028,0,0,1,1.027-1.03h0a1.03,1.03,0,0,1,1.026,1.03h0a1.03,1.03,0,0,1-1.026,1.027h0A1.028,1.028,0,0,1,401.661,1656.323Zm0-2.738a1.025,1.025,0,0,1,1.027-1.027h0a1.027,1.027,0,0,1,1.026,1.027h0a1.029,1.029,0,0,1-1.026,1.026h0A1.027,1.027,0,0,1,401.661,1653.586Z" transform="translate(-277.085 -1643.437)"/>
        <path id="Path_94" data-name="Path 94" d="M290.826,1662.788a1.882,1.882,0,0,1-1.882-1.882v-17.111a1.882,1.882,0,1,1,3.764,0v17.111A1.882,1.882,0,0,1,290.826,1662.788Z" transform="translate(-219.64 -1638.011)"/>
        <path id="Path_95" data-name="Path 95" d="M290.69,1694.914a1.03,1.03,0,0,1,1.026-1.027h0a1.027,1.027,0,0,1,1.027,1.027h0a1.028,1.028,0,0,1-1.027,1.03h0A1.03,1.03,0,0,1,290.69,1694.914Zm0-2.738a1.027,1.027,0,0,1,1.026-1.023h0a1.025,1.025,0,0,1,1.027,1.023h0a1.028,1.028,0,0,1-1.027,1.03h0A1.03,1.03,0,0,1,290.69,1692.177Zm0-2.738a1.027,1.027,0,0,1,1.026-1.023h0a1.025,1.025,0,0,1,1.027,1.023h0a1.025,1.025,0,0,1-1.027,1.026h0A1.027,1.027,0,0,1,290.69,1689.439Zm0-2.735a1.027,1.027,0,0,1,1.026-1.026h0a1.025,1.025,0,0,1,1.027,1.026h0a1.025,1.025,0,0,1-1.027,1.023h0A1.027,1.027,0,0,1,290.69,1686.7Z" transform="translate(-220.529 -1660.316)"/>
        <path id="Path_96" data-name="Path 96" d="M260.117,1662.788a1.882,1.882,0,0,1-1.882-1.882v-17.111a1.882,1.882,0,0,1,3.764,0v17.111A1.882,1.882,0,0,1,260.117,1662.788Z" transform="translate(-203.989 -1638.011)"/>
        <path id="Path_97" data-name="Path 97" d="M259.981,1694.914a1.03,1.03,0,0,1,1.027-1.027h0a1.027,1.027,0,0,1,1.026,1.027h0a1.028,1.028,0,0,1-1.026,1.03h0A1.03,1.03,0,0,1,259.981,1694.914Zm0-2.738a1.027,1.027,0,0,1,1.027-1.023h0a1.024,1.024,0,0,1,1.026,1.023h0a1.028,1.028,0,0,1-1.026,1.03h0A1.03,1.03,0,0,1,259.981,1692.177Zm0-2.738a1.027,1.027,0,0,1,1.027-1.023h0a1.024,1.024,0,0,1,1.026,1.023h0a1.025,1.025,0,0,1-1.026,1.026h0A1.027,1.027,0,0,1,259.981,1689.439Zm0-2.735a1.027,1.027,0,0,1,1.027-1.026h0a1.025,1.025,0,0,1,1.026,1.026h0a1.024,1.024,0,0,1-1.026,1.023h0A1.027,1.027,0,0,1,259.981,1686.7Z" transform="translate(-204.879 -1660.316)"/>
      </g>
    </g>
  </g>
</svg>
