<svg xmlns="http://www.w3.org/2000/svg" width="42.902" height="39" viewBox="0 0 42.902 39">
  <g id="Component_2_1" data-name="Component 2 – 1" transform="translate(0.502 0.5)">
    <path id="Union_1" data-name="Union 1" d="M-1691.651,34.605c-3.81,2.672-14.156,5.03-10.664,3.206,3.216-1.68,5.62-7.412,6-8.361a18.908,18.908,0,0,1-2.81-9.949,19,19,0,0,1,19-19,19,19,0,0,1,19,19,19,19,0,0,1-19,19A18.915,18.915,0,0,1-1691.651,34.605Z" transform="translate(1703.024 -0.5)" fill="none" stroke="#f4ca57" stroke-width="1"/>
    <g id="Group_120" data-name="Group 120" transform="translate(-295.6 -39.543)">
      <circle id="Ellipse_17" data-name="Ellipse 17" cx="2" cy="2" r="2" transform="translate(308 57.043)" fill="#f4ca57"/>
      <circle id="Ellipse_18" data-name="Ellipse 18" cx="2" cy="2" r="2" transform="translate(325 57.043)" fill="#f4ca57"/>
      <circle id="Ellipse_19" data-name="Ellipse 19" cx="2" cy="2" r="2" transform="translate(317 57.043)" fill="#f4ca57"/>
    </g>
  </g>
</svg>
